<?xml version="1.0" encoding="UTF-8"?>
<svg id="Layer_2" data-name="Layer 2" xmlns="http://www.w3.org/2000/svg" xmlns:xlink="http://www.w3.org/1999/xlink" viewBox="0 0 560.39 216.98">
  <defs>
    <style>
      .cls-1 {
        fill: url(#linear-gradient);
      }

      .cls-2 {
        fill: #2e9449;
      }

      .cls-3 {
        fill: url(#linear-gradient-3);
      }

      .cls-4 {
        fill: url(#linear-gradient-4);
      }

      .cls-5 {
        fill: url(#linear-gradient-2);
      }

      .cls-6 {
        fill: url(#linear-gradient-5);
      }

      .cls-7 {
        fill: #1d602d;
        opacity: .55;
      }
    </style>
    <linearGradient id="linear-gradient" x1="29.76" y1="100.86" x2="69.54" y2="213.87" gradientUnits="userSpaceOnUse">
      <stop offset="0" stop-color="#378049"/>
      <stop offset="1" stop-color="#37b93c"/>
    </linearGradient>
    <linearGradient id="linear-gradient-2" x1="99.94" y1="222.29" x2="181.13" y2="107.84" gradientUnits="userSpaceOnUse">
      <stop offset="0" stop-color="#73cc35"/>
      <stop offset="1" stop-color="#47b471"/>
    </linearGradient>
    <linearGradient id="linear-gradient-3" x1="33.36" y1="51.8" x2="33.36" y2="82.21" gradientUnits="userSpaceOnUse">
      <stop offset="0" stop-color="#54b435"/>
      <stop offset="1" stop-color="#37924e"/>
    </linearGradient>
    <linearGradient id="linear-gradient-4" x1="152.41" y1="53.87" x2="152.41" y2="86.89" xlink:href="#linear-gradient-3"/>
    <linearGradient id="linear-gradient-5" x1="87.37" y1="37.73" x2="88.57" y2="90.21" xlink:href="#linear-gradient-3"/>
  </defs>
  <g id="Layer_1-2" data-name="Layer 1">
    <g>
      <g>
        <path d="M277.15,95.88c1.14,0,2.11,.39,2.92,1.18,.79,.79,1.18,1.75,1.18,2.88s-.39,2.1-1.18,2.88c-.81,.82-1.79,1.22-2.92,1.22h-29.42c-1.14,0-2.11-.41-2.93-1.22-.79-.79-1.18-1.75-1.18-2.88V42.01c0-1.14,.39-2.1,1.18-2.88s1.79-1.22,2.93-1.22,2.07,.41,2.88,1.22c.78,.79,1.18,1.75,1.18,2.88v53.87h25.36Z"/>
        <path d="M292.91,96.84c-2.27-2.27-4.03-4.86-5.28-7.77-1.31-3.06-1.96-6.24-1.96-9.56,0-6.81,2.42-12.63,7.25-17.46,2.3-2.27,4.93-4.03,7.9-5.28,3.06-1.31,6.27-1.96,9.65-1.96,6.81,0,12.64,2.42,17.51,7.25,2.27,2.27,4.03,4.89,5.28,7.86,1.31,3.06,1.96,6.26,1.96,9.6,0,1.13-.39,2.09-1.18,2.88-.82,.82-1.79,1.22-2.93,1.22h-36.76c.93,3.55,2.88,6.48,5.85,8.77,3,2.33,6.42,3.49,10.26,3.49,6.05,0,10.72-1.85,14.01-5.54,.73-.84,1.66-1.29,2.79-1.35,1.14-.06,2.12,.28,2.97,1,.84,.76,1.29,1.7,1.35,2.84,.06,1.11-.29,2.08-1.05,2.92-4.89,5.53-11.58,8.29-20.08,8.29-6.84,0-12.69-2.4-17.55-7.2Zm33.62-21.43c-.93-3.61-2.87-6.58-5.81-8.91-3.03-2.36-6.45-3.54-10.26-3.54s-7.28,1.18-10.3,3.54c-2.94,2.33-4.87,5.3-5.81,8.91h32.17Z"/>
        <path d="M364.6,54.8c1.13,0,2.1,.41,2.88,1.22,.79,.79,1.18,1.75,1.18,2.88s-.39,2.1-1.18,2.88c-.79,.81-1.75,1.22-2.88,1.22h-6.37v36.98c0,1.14-.39,2.1-1.18,2.88-.78,.79-1.75,1.18-2.88,1.18s-2.1-.39-2.88-1.18c-.82-.79-1.22-1.75-1.22-2.88V63.01h-6.33c-1.13,0-2.11-.41-2.92-1.22s-1.18-1.75-1.18-2.88,.39-2.1,1.18-2.88,1.79-1.22,2.92-1.22h6.33v-12.57c0-1.13,.41-2.1,1.22-2.88,.79-.81,1.75-1.22,2.88-1.22s2.1,.41,2.88,1.22c.79,.79,1.18,1.75,1.18,2.88v12.57h6.37Z"/>
        <path d="M396.74,54.8c1.13,0,2.1,.41,2.88,1.22,.79,.79,1.18,1.75,1.18,2.88s-.39,2.1-1.18,2.88c-.79,.81-1.75,1.22-2.88,1.22h-6.37v36.98c0,1.14-.39,2.1-1.18,2.88-.78,.79-1.75,1.18-2.88,1.18s-2.1-.39-2.88-1.18c-.82-.79-1.22-1.75-1.22-2.88V63.01h-6.33c-1.13,0-2.11-.41-2.92-1.22s-1.18-1.75-1.18-2.88,.39-2.1,1.18-2.88,1.79-1.22,2.92-1.22h6.33v-12.57c0-1.13,.41-2.1,1.22-2.88,.79-.81,1.75-1.22,2.88-1.22s2.1,.41,2.88,1.22c.79,.79,1.18,1.75,1.18,2.88v12.57h6.37Z"/>
        <path d="M446.56,54.8c1.14,0,2.1,.39,2.88,1.18,.79,.81,1.18,1.79,1.18,2.92v41.08c0,1.11-.39,2.07-1.18,2.88-.79,.79-1.75,1.18-2.88,1.18s-2.1-.39-2.88-1.18-1.22-1.77-1.22-2.88v-1.31c-3.93,3.58-8.41,5.37-13.45,5.37-5.97,0-11.06-2.4-15.28-7.2-4.22-4.83-6.33-10.64-6.33-17.42v-20.65c0-1.13,.39-2.1,1.18-2.88s1.79-1.22,2.92-1.22,2.07,.41,2.88,1.22c.79,.79,1.18,1.75,1.18,2.88v20.65c0,4.54,1.31,8.41,3.93,11.61,2.65,3.23,5.82,4.85,9.52,4.85s6.9-1.61,9.52-4.85c2.62-3.2,3.93-7.07,3.93-11.61v-20.52c0-1.13,.41-2.11,1.22-2.92s1.75-1.18,2.88-1.18Z"/>
        <path d="M484.51,63.01c-4.42,0-8.21,1.6-11.35,4.8-3.14,3.23-4.72,7.12-4.72,11.66s1.57,8.38,4.72,11.61c3.14,3.2,6.93,4.8,11.35,4.8,5.41,0,9.74-2.25,12.96-6.77,.64-.9,1.53-1.44,2.66-1.61,.26-.06,.51-.09,.74-.09,.81,0,1.57,.26,2.27,.79,.93,.64,1.48,1.53,1.66,2.66,.06,.26,.09,.51,.09,.74,0,.82-.26,1.57-.79,2.27-4.86,6.78-11.39,10.17-19.6,10.17-6.69,0-12.4-2.4-17.11-7.2-4.74-4.8-7.12-10.59-7.12-17.37s2.37-12.62,7.12-17.42c4.72-4.83,10.42-7.25,17.11-7.25,8.21,0,14.74,3.39,19.6,10.17,.52,.73,.79,1.5,.79,2.31,0,.23-.03,.48-.09,.74-.18,1.11-.73,1.99-1.66,2.66-.7,.52-1.46,.79-2.27,.79-.23,0-.48-.03-.74-.09-1.13-.17-2.02-.73-2.66-1.66-3.23-4.48-7.55-6.72-12.96-6.72Z"/>
        <path d="M518.08,96.84c-2.27-2.27-4.03-4.86-5.28-7.77-1.31-3.06-1.96-6.24-1.96-9.56,0-6.81,2.42-12.63,7.25-17.46,2.3-2.27,4.93-4.03,7.9-5.28,3.06-1.31,6.27-1.96,9.65-1.96,6.81,0,12.65,2.42,17.51,7.25,2.27,2.27,4.03,4.89,5.28,7.86,1.31,3.06,1.96,6.26,1.96,9.6,0,1.13-.39,2.09-1.18,2.88-.81,.82-1.79,1.22-2.92,1.22h-36.76c.93,3.55,2.88,6.48,5.85,8.77,3,2.33,6.42,3.49,10.26,3.49,6.05,0,10.72-1.85,14.01-5.54,.73-.84,1.66-1.29,2.79-1.35,1.14-.06,2.12,.28,2.97,1,.84,.76,1.3,1.7,1.35,2.84,.06,1.11-.29,2.08-1.05,2.92-4.89,5.53-11.58,8.29-20.08,8.29-6.84,0-12.69-2.4-17.55-7.2Zm33.61-21.43c-.93-3.61-2.87-6.58-5.81-8.91-3.03-2.36-6.45-3.54-10.26-3.54s-7.28,1.18-10.3,3.54c-2.94,2.33-4.87,5.3-5.81,8.91h32.17Z"/>
        <path d="M249.34,186.48c-3.76-2.53-6.43-5.78-8.03-9.74-.41-1.02-.41-2.02,0-3.01,.44-.99,1.15-1.69,2.14-2.1,1.02-.41,2.02-.39,3.01,.04,.99,.44,1.69,1.15,2.1,2.14,1.02,2.53,2.72,4.6,5.11,6.2,2.42,1.6,5.02,2.4,7.81,2.4,3.29,0,6.08-1.03,8.38-3.1,2.33-2.09,3.49-4.6,3.49-7.51,0-3.14-1-5.47-3.01-6.98-1.63-1.22-4.95-2.52-9.95-3.89-5.71-1.57-9.78-3.24-12.22-5.02-4.25-3.06-6.37-7.45-6.37-13.18,0-5.06,1.92-9.4,5.76-13.01,3.87-3.61,8.51-5.41,13.93-5.41,4.57,0,8.59,1.31,12.05,3.93,3.49,2.62,5.88,6.11,7.16,10.48,.29,1.05,.19,2.04-.31,2.97-.52,.96-1.31,1.59-2.36,1.88-1.02,.29-2.01,.19-2.97-.31-.93-.52-1.56-1.31-1.88-2.36-.79-2.71-2.23-4.85-4.32-6.42s-4.56-2.36-7.38-2.36c-3.26,0-6.05,1.03-8.38,3.1-2.33,2.1-3.49,4.6-3.49,7.51,0,3.06,1,5.33,3.01,6.81,1.6,1.19,4.87,2.47,9.82,3.84,5.76,1.6,9.88,3.29,12.35,5.06,4.25,3.09,6.37,7.54,6.37,13.36,0,5.06-1.92,9.4-5.76,13.01-3.84,3.61-8.48,5.41-13.93,5.41-4.34,0-8.38-1.25-12.14-3.75Z"/>
        <path d="M312.25,140.99c6.67,0,12.37,2.42,17.11,7.25,4.74,4.8,7.12,10.61,7.12,17.42s-2.37,12.57-7.12,17.37-10.45,7.2-17.11,7.2-12.4-2.4-17.11-7.2c-4.74-4.8-7.11-10.59-7.11-17.37s2.37-12.62,7.11-17.42c4.72-4.83,10.42-7.25,17.11-7.25Zm0,41.08c4.42,0,8.21-1.6,11.35-4.8,3.14-3.23,4.72-7.1,4.72-11.61s-1.57-8.43-4.72-11.66c-3.14-3.2-6.93-4.8-11.35-4.8s-8.21,1.6-11.35,4.8c-3.14,3.23-4.72,7.12-4.72,11.66s1.57,8.38,4.72,11.61c3.14,3.2,6.93,4.8,11.35,4.8Z"/>
        <path d="M367.31,149.2c-4.42,0-8.21,1.6-11.35,4.8-3.14,3.23-4.72,7.12-4.72,11.66s1.57,8.38,4.72,11.61c3.14,3.2,6.93,4.8,11.35,4.8,5.41,0,9.74-2.25,12.96-6.77,.64-.9,1.53-1.44,2.66-1.61,.26-.06,.51-.09,.74-.09,.81,0,1.57,.26,2.27,.79,.93,.64,1.48,1.53,1.66,2.66,.06,.26,.09,.51,.09,.74,0,.82-.26,1.57-.79,2.27-4.86,6.78-11.39,10.17-19.6,10.17-6.69,0-12.4-2.4-17.11-7.2-4.74-4.8-7.12-10.59-7.12-17.37s2.37-12.62,7.12-17.42c4.72-4.83,10.42-7.25,17.11-7.25,8.21,0,14.74,3.39,19.6,10.17,.52,.73,.79,1.5,.79,2.31,0,.23-.03,.48-.09,.74-.18,1.11-.73,1.99-1.66,2.66-.7,.52-1.46,.79-2.27,.79-.23,0-.48-.03-.74-.09-1.13-.17-2.02-.73-2.66-1.66-3.23-4.48-7.55-6.72-12.96-6.72Z"/>
        <path d="M401.5,124.4c.87,0,1.72,.23,2.55,.68,.83,.45,1.49,1.1,1.96,1.94,.48,.84,.72,1.72,.72,2.62s-.23,1.77-.7,2.6c-.46,.83-1.11,1.48-1.94,1.94-.83,.47-1.7,.7-2.6,.7s-1.77-.23-2.6-.7c-.83-.46-1.48-1.11-1.94-1.94-.46-.83-.7-1.7-.7-2.6s.23-1.77,.7-2.62c.47-.84,1.12-1.49,1.96-1.94,.84-.45,1.7-.68,2.58-.68Zm0,16.59c1.13,0,2.1,.41,2.88,1.22,.81,.79,1.22,1.75,1.22,2.88v41.08c0,1.14-.41,2.1-1.22,2.88-.79,.79-1.75,1.18-2.88,1.18s-2.1-.39-2.88-1.18c-.81-.79-1.22-1.75-1.22-2.88v-41.08c0-1.13,.41-2.1,1.22-2.88,.79-.81,1.75-1.22,2.88-1.22Z"/>
        <path d="M462.06,140.99c1.13,0,2.1,.41,2.88,1.22,.79,.79,1.18,1.75,1.18,2.88v41.08c0,1.14-.39,2.1-1.18,2.88s-1.75,1.18-2.88,1.18-2.1-.39-2.88-1.18c-.82-.79-1.22-1.75-1.22-2.88v-2.14c-4.57,4.13-9.91,6.2-16.02,6.2-6.69,0-12.4-2.4-17.11-7.2-4.74-4.8-7.12-10.59-7.12-17.37s2.37-12.62,7.12-17.42c4.72-4.83,10.42-7.25,17.11-7.25,6.11,0,11.45,2.07,16.02,6.2v-2.1c0-1.13,.41-2.1,1.22-2.88,.79-.81,1.75-1.22,2.88-1.22Zm-20.13,41.08c4.42,0,8.21-1.6,11.35-4.8,3.11-3.23,4.67-7.1,4.67-11.61s-1.56-8.43-4.67-11.66c-3.14-3.2-6.93-4.8-11.35-4.8s-8.21,1.6-11.35,4.8c-3.14,3.23-4.72,7.12-4.72,11.66s1.57,8.38,4.72,11.61c3.14,3.2,6.93,4.8,11.35,4.8Z"/>
        <path d="M482.5,124.32c1.11,0,2.07,.41,2.88,1.22s1.18,1.75,1.18,2.88v57.75c0,1.14-.39,2.1-1.18,2.88-.81,.79-1.78,1.18-2.88,1.18s-2.11-.39-2.92-1.18c-.79-.79-1.18-1.75-1.18-2.88v-57.75c0-1.13,.39-2.1,1.18-2.88s1.79-1.22,2.92-1.22Z"/>
      </g>
      <path class="cls-1" d="M86.33,139.5c-.16-.26-.33-.52-.52-.78-2.46-3.59-5.17-7-8.15-10.16-1.54-1.65-3.15-3.25-4.82-4.78-3.59-3.28-7.46-6.26-11.58-8.88v-.12c-4.1-2.62-8.43-4.9-12.98-6.78v.11c-10.03-4.2-21.04-6.51-32.57-6.51h-.32c-4.44,.02-8.81,.38-13.07,1.06h-.01l-.21,.04c-.01,.05,0,0-.02,.1-.94,4.38-1.57,8.88-1.87,13.46h-.01v.1c-.13,1.98-.19,3.98-.19,6,0,7.05,.78,13.92,2.26,20.52,3.29,14.76,10.07,28.22,19.42,39.48,11.1,13.37,25.84,23.64,42.69,29.25,4.65,1.55,9.45,2.75,14.39,3.56-.22-.7-.42-1.41-.62-2.12-.41-1.45-.79-2.9-1.14-4.37-.22-.92-.41-1.84-.61-2.77-.31-1.52-.58-3.05-.82-4.6-.76-4.91-1.16-9.94-1.16-15.06,0-11.27,1.91-22.09,5.44-32.17,.02,.03,.03,.08,.05,.11,1.62-4.67,3.6-9.17,5.89-13.48,.19-.38,.39-.75,.58-1.11-.02-.03-.04-.06-.06-.1Z"/>
      <path class="cls-5" d="M187.9,116.28c-.29-4.62-.93-9.15-1.87-13.56-.02-.01-.04-.02-.08-.01-4.29-.7-8.69-1.08-13.17-1.09-.12-.01-.24-.01-.36-.01h-.08c-10.82,0-21.18,2.03-30.71,5.75v-.1c-4.52,1.75-8.87,3.89-12.98,6.38v.1c-4.7,2.84-9.1,6.12-13.16,9.8v-.14c-4.88,4.39-9.23,9.34-12.98,14.75v.18c-.3,.42-.59,.85-.88,1.29-.01-.03-.03-.07-.05-.1-2.95,4.42-5.49,9.14-7.57,14.09,.01,.04,.03,.09,.05,.14-.03,.04-.04,.09-.05,.13-.02-.04-.03-.09-.06-.13-3.85,9.19-6.12,19.2-6.48,29.69,.01,.13,.01,.26,.01,.4-.01,0-.02,0-.03-.01-.03,.87-.04,1.73-.04,2.61,0,1.01,.02,2.01,.06,3.01,.08,2.6,.28,5.17,.61,7.7,.26,2.08,.61,4.13,1.02,6.15,.91,4.51,2.17,8.89,3.77,13.12h.11c.35,.01,.7,.01,1.05,.01s.68,0,1.02-.01h.11c3.9-.04,7.74-.32,11.5-.84,.88-.11,1.75-.24,2.62-.39,6.39-1.05,12.57-2.74,18.46-5.02l33.06,6.82,7.68-37.22c8.51-10.99,14.63-23.91,17.58-37.96,1.33-6.27,2.02-12.77,2.02-19.43,0-2.04-.06-4.08-.19-6.09Z"/>
      <g>
        <path class="cls-3" d="M55.13,47.94c-4.4-1.91-9.26-2.96-14.36-2.96-17.41,0-31.98,12.27-35.54,28.62-.76,3.48,1.97,6.76,5.53,6.76h.11c2.61,0,4.92-1.77,5.48-4.32,2.44-11.23,12.46-19.67,24.42-19.67,1.72,0,3.4,.18,5.02,.51,2.64,.54,5.13,1.51,7.4,2.81,2.02,1.16,4.58,.87,6.34-.66,.03-.03,.06-.05,.09-.08,2.93-2.55,2.58-7.23-.79-9.16-1.19-.68-2.43-1.3-3.7-1.85Z"/>
        <path class="cls-4" d="M148.43,44.98c-8.1,0-15.59,2.66-21.65,7.16-1.61,1.19-3.11,2.51-4.49,3.95-2.04,2.11-2.12,5.4-.21,7.64,.03,.03,.05,.06,.08,.09,2.12,2.5,5.97,2.62,8.24,.26,1.15-1.2,2.43-2.28,3.8-3.23,4.04-2.82,8.95-4.48,14.23-4.48,11.97,0,21.99,8.44,24.43,19.67,.55,2.54,2.87,4.32,5.47,4.32h.12c3.56,0,6.28-3.28,5.53-6.76-3.55-16.35-18.14-28.62-35.55-28.62Z"/>
        <path class="cls-6" d="M142.69,80.43c-1.56-7.11-4.48-13.7-8.49-19.51-2.18-3.15-4.66-6.07-7.41-8.71-9.97-9.5-23.47-15.36-38.3-15.36-12.5,0-24.07,4.16-33.35,11.16-3.44,2.61-6.59,5.61-9.34,8.93-5.57,6.68-9.59,14.7-11.51,23.48-.4,1.8-.71,3.63-.92,5.49-.39,3.41,2.22,6.41,5.65,6.41h0c2.93,0,5.33-2.23,5.66-5.13,.27-2.32,.72-4.58,1.34-6.77,1.96-7,5.62-13.29,10.48-18.41,2.66-2.8,5.67-5.25,8.97-7.28,6.71-4.12,14.59-6.5,23.03-6.5,11.74,0,22.41,4.61,30.33,12.12,2.91,2.75,5.45,5.91,7.54,9.38,1.97,3.3,3.54,6.9,4.61,10.69,.62,2.19,1.07,4.45,1.34,6.77,.34,2.91,2.74,5.13,5.66,5.13h0c3.43,0,6.05-3.01,5.65-6.41-.22-1.86-.52-3.69-.92-5.49Z"/>
        <circle class="cls-2" cx="89.04" cy="18.41" r="18.41"/>
        <circle class="cls-2" cx="35.36" cy="31.37" r="13.89"/>
        <circle class="cls-2" cx="148.48" cy="31.37" r="13.89"/>
        <path class="cls-7" d="M45.85,56.89c2.73-3.3,5.86-6.28,9.28-8.87,.02-.02,.04-.03,.07-.05-.02,0-.04-.02-.07-.03-1.12-.49-2.27-.92-3.45-1.29-2.37,3.15-4.39,6.57-6.05,10.2,.05,.01,.11,.01,.16,.02,.02,0,.04,0,.06,.01Z"/>
        <path class="cls-7" d="M126.79,52.15s-.03,.03-.05,.04c.01,.01,.03,.03,.05,.04,2.74,2.62,5.21,5.52,7.38,8.66,.01,0,.02-.02,.04-.03,.13-.09,.28-.18,.41-.27-1.47-3.55-3.3-6.92-5.45-10.06-.81,.51-1.61,1.05-2.38,1.62Z"/>
      </g>
      <circle class="cls-2" cx="544.67" cy="174.52" r="15.71"/>
    </g>
  </g>
</svg>