<svg width="376" height="492" viewBox="0 0 376 492" fill="none" xmlns="http://www.w3.org/2000/svg"><g opacity=".2"><mask id="mask0_8633_4546" style="mask-type:alpha" maskUnits="userSpaceOnUse" x="-197" y="-276" width="769" height="768"><path transform="matrix(1 0 0 -1 -196.283 492)" fill="url(#paint0_radial_8633_4546)" d="M0 0h768v768H0z"/></mask><g mask="url(#mask0_8633_4546)" stroke="#E4E7EC"><circle cx="48" cy="48" r="47.5" transform="matrix(1 0 0 -1 139.717 156)"/><circle cx="96" cy="96" r="95.5" transform="matrix(1 0 0 -1 91.7168 204)"/><circle cx="144" cy="144" r="143.5" transform="matrix(1 0 0 -1 43.7168 252)"/><circle cx="192" cy="192" r="191.5" transform="matrix(1 0 0 -1 -4.2832 300)"/><circle cx="240" cy="240" r="239.5" transform="matrix(1 0 0 -1 -52.2832 348)"/><circle cx="288" cy="288" r="287.5" transform="matrix(1 0 0 -1 -100.283 396)"/><circle cx="336" cy="336" r="335.5" transform="matrix(1 0 0 -1 -148.283 444)"/><circle cx="384" cy="384" r="383.5" transform="matrix(1 0 0 -1 -196.283 492)"/></g></g><defs><radialGradient id="paint0_radial_8633_4546" cx="0" cy="0" r="1" gradientUnits="userSpaceOnUse" gradientTransform="rotate(90 0 384) scale(384)"><stop/><stop offset="1" stop-opacity="0"/></radialGradient></defs></svg>