<svg width="61" height="60" viewBox="0 0 61 60" fill="none" xmlns="http://www.w3.org/2000/svg">
<g filter="url(#filter0_d_261_4895)">
<rect x="2.55396" y="1" width="56" height="56" rx="12" fill="white"/>
<rect x="3.05396" y="1.5" width="55" height="55" rx="11.5" stroke="#EAECF0"/>
<path d="M24.7206 27.833V23.1663C24.7206 21.6192 25.3352 20.1355 26.4292 19.0416C27.5231 17.9476 29.0069 17.333 30.554 17.333C32.1011 17.333 33.5848 17.9476 34.6787 19.0416C35.7727 20.1355 36.3873 21.6192 36.3873 23.1663V27.833M22.3873 27.833H38.7206C40.0093 27.833 41.054 28.8777 41.054 30.1663V38.333C41.054 39.6217 40.0093 40.6663 38.7206 40.6663H22.3873C21.0986 40.6663 20.054 39.6217 20.054 38.333V30.1663C20.054 28.8777 21.0986 27.833 22.3873 27.833Z" stroke="#344054" stroke-width="2" stroke-linecap="round" stroke-linejoin="round"/>
</g>
<defs>
<filter id="filter0_d_261_4895" x="0.553955" y="0" width="60" height="60" filterUnits="userSpaceOnUse" color-interpolation-filters="sRGB">
<feFlood flood-opacity="0" result="BackgroundImageFix"/>
<feColorMatrix in="SourceAlpha" type="matrix" values="0 0 0 0 0 0 0 0 0 0 0 0 0 0 0 0 0 0 127 0" result="hardAlpha"/>
<feOffset dy="1"/>
<feGaussianBlur stdDeviation="1"/>
<feColorMatrix type="matrix" values="0 0 0 0 0.0627451 0 0 0 0 0.0941176 0 0 0 0 0.156863 0 0 0 0.05 0"/>
<feBlend mode="normal" in2="BackgroundImageFix" result="effect1_dropShadow_261_4895"/>
<feBlend mode="normal" in="SourceGraphic" in2="effect1_dropShadow_261_4895" result="shape"/>
</filter>
</defs>
</svg>
