<svg width="61" height="61" viewBox="0 0 61 61" fill="none" xmlns="http://www.w3.org/2000/svg">
<g filter="url(#filter0_d_261_4223)">
<rect x="2.5" y="1.23828" width="56" height="56" rx="12" fill="white"/>
<rect x="3" y="1.73828" width="55" height="55" rx="11.5" stroke="#EAECF0"/>
<path d="M18.8335 23.4043L28.3592 30.0723C29.1306 30.6123 29.5163 30.8823 29.9358 30.9868C30.3064 31.0792 30.694 31.0792 31.0645 30.9868C31.484 30.8823 31.8697 30.6123 32.6411 30.0723L42.1668 23.4043M24.4335 38.571H36.5668C38.527 38.571 39.5071 38.571 40.2558 38.1895C40.9144 37.8539 41.4498 37.3185 41.7854 36.6599C42.1668 35.9112 42.1668 34.9311 42.1668 32.971V25.5043C42.1668 23.5441 42.1668 22.564 41.7854 21.8153C41.4498 21.1568 40.9144 20.6213 40.2558 20.2858C39.5071 19.9043 38.527 19.9043 36.5668 19.9043H24.4335C22.4733 19.9043 21.4932 19.9043 20.7445 20.2858C20.086 20.6213 19.5505 21.1568 19.215 21.8153C18.8335 22.564 18.8335 23.5441 18.8335 25.5043V32.971C18.8335 34.9311 18.8335 35.9112 19.215 36.6599C19.5505 37.3185 20.086 37.8539 20.7445 38.1895C21.4932 38.571 22.4733 38.571 24.4335 38.571Z" stroke="#344054" stroke-width="2" stroke-linecap="round" stroke-linejoin="round"/>
</g>
<defs>
<filter id="filter0_d_261_4223" x="0.5" y="0.238281" width="60" height="60" filterUnits="userSpaceOnUse" color-interpolation-filters="sRGB">
<feFlood flood-opacity="0" result="BackgroundImageFix"/>
<feColorMatrix in="SourceAlpha" type="matrix" values="0 0 0 0 0 0 0 0 0 0 0 0 0 0 0 0 0 0 127 0" result="hardAlpha"/>
<feOffset dy="1"/>
<feGaussianBlur stdDeviation="1"/>
<feColorMatrix type="matrix" values="0 0 0 0 0.0627451 0 0 0 0 0.0941176 0 0 0 0 0.156863 0 0 0 0.05 0"/>
<feBlend mode="normal" in2="BackgroundImageFix" result="effect1_dropShadow_261_4223"/>
<feBlend mode="normal" in="SourceGraphic" in2="effect1_dropShadow_261_4223" result="shape"/>
</filter>
</defs>
</svg>
