<svg width="61" height="61" viewBox="0 0 61 61" fill="none" xmlns="http://www.w3.org/2000/svg">
<g filter="url(#filter0_d_261_4231)">
<rect x="2.5" y="1.23828" width="56" height="56" rx="12" fill="white"/>
<rect x="3" y="1.73828" width="55" height="55" rx="11.5" stroke="#EAECF0"/>
<path d="M42.1668 28.1645V29.2378C42.1654 31.7536 41.3507 34.2016 39.8444 36.2166C38.338 38.2316 36.2207 39.7057 33.8081 40.419C31.3955 41.1323 28.817 41.0467 26.457 40.1748C24.0971 39.3029 22.0823 37.6916 20.7129 35.581C19.3436 33.4705 18.6933 30.9739 18.8588 28.4635C19.0243 25.9531 19.9969 23.5635 21.6315 21.651C23.2661 19.7386 25.4751 18.4057 27.929 17.8513C30.383 17.2969 32.9505 17.5505 35.2485 18.5745M42.1668 19.9045L30.5002 31.5828L27.0002 28.0828" stroke="#344054" stroke-width="2" stroke-linecap="round" stroke-linejoin="round"/>
</g>
<defs>
<filter id="filter0_d_261_4231" x="0.5" y="0.238281" width="60" height="60" filterUnits="userSpaceOnUse" color-interpolation-filters="sRGB">
<feFlood flood-opacity="0" result="BackgroundImageFix"/>
<feColorMatrix in="SourceAlpha" type="matrix" values="0 0 0 0 0 0 0 0 0 0 0 0 0 0 0 0 0 0 127 0" result="hardAlpha"/>
<feOffset dy="1"/>
<feGaussianBlur stdDeviation="1"/>
<feColorMatrix type="matrix" values="0 0 0 0 0.0627451 0 0 0 0 0.0941176 0 0 0 0 0.156863 0 0 0 0.05 0"/>
<feBlend mode="normal" in2="BackgroundImageFix" result="effect1_dropShadow_261_4231"/>
<feBlend mode="normal" in="SourceGraphic" in2="effect1_dropShadow_261_4231" result="shape"/>
</filter>
</defs>
</svg>
