<svg width="25" height="24" viewBox="0 0 25 24" fill="none" xmlns="http://www.w3.org/2000/svg">
<path d="M2.44043 7.00195H22.3414" stroke="#027A48" stroke-width="1.5" stroke-linejoin="round"/>
<path d="M13.8955 2.00098L16.7535 7.00198" stroke="#027A48" stroke-width="1.5" stroke-linecap="round" stroke-linejoin="round"/>
<path d="M7.59863 2.11035L10.3936 7.00235" stroke="#027A48" stroke-width="1.5" stroke-linecap="round" stroke-linejoin="round"/>
<path d="M2.3916 12.001V15.45C2.3916 18.299 3.0896 19.456 3.9976 20.395C4.9376 21.303 6.0956 22.002 8.9436 22.002H15.8396C18.6876 22.002 19.8456 21.303 20.7856 20.395C21.6936 19.456 22.3916 18.299 22.3916 15.45V8.552C22.3916 5.704 21.6936 4.546 20.7856 3.607C19.8456 2.699 18.6876 2 15.8396 2H8.9436C6.0956 2 4.9376 2.699 3.9976 3.607C3.0896 4.546 2.3916 5.704 2.3916 8.552V12.001Z" stroke="#027A48" stroke-width="1.5" stroke-linecap="round" stroke-linejoin="round"/>
<path fill-rule="evenodd" clip-rule="evenodd" d="M10.1547 17.6638C10.0166 17.584 9.90187 17.4693 9.82217 17.3312C9.74247 17.193 9.70057 17.0363 9.70068 16.8768V11.6298C9.7005 11.4701 9.74239 11.3132 9.82214 11.1748C9.90189 11.0364 10.0167 10.9215 10.155 10.8416C10.2933 10.7617 10.4501 10.7197 10.6098 10.7197C10.7696 10.7198 10.9264 10.7619 11.0647 10.8418L15.6097 13.4658C15.748 13.5455 15.8629 13.6603 15.9427 13.7986C16.0226 13.9368 16.0647 14.0936 16.0647 14.2533C16.0647 14.413 16.0226 14.5698 15.9427 14.708C15.8629 14.8463 15.748 14.9611 15.6097 15.0408L11.0647 17.6648C10.9263 17.7447 10.7694 17.7867 10.6097 17.7867C10.4499 17.7867 10.293 17.7447 10.1547 17.6648V17.6638Z" fill="#027A48"/>
</svg>
